<?xml version="1.0" standalone="no"?>
<!DOCTYPE svg PUBLIC "-//W3C//DTD SVG 20010904//EN"
 "http://www.w3.org/TR/2001/REC-SVG-20010904/DTD/svg10.dtd">
<svg version="1.0" xmlns="http://www.w3.org/2000/svg"
 width="1496.000000pt" height="1488.000000pt" viewBox="0 0 1496.000000 1488.000000"
 preserveAspectRatio="xMidYMid meet">

<g transform="translate(0.000000,1488.000000) scale(0.100000,-0.100000)"
fill="#000000" stroke="none">
<path d="M6995 13594 c-878 -47 -1641 -238 -2393 -600 -1220 -585 -2235 -1595
-2821 -2806 -349 -719 -529 -1384 -602 -2223 -18 -206 -16 -720 5 -950 70
-787 266 -1493 605 -2183 698 -1415 1924 -2507 3414 -3039 179 -64 516 -164
594 -178 l42 -7 5 46 c3 25 9 66 12 91 4 32 2 46 -8 49 -7 3 -80 23 -163 46
-715 196 -1360 511 -1955 953 -230 171 -417 333 -641 557 -332 331 -514 553
-764 930 -485 731 -805 1580 -919 2440 -40 295 -50 464 -50 800 0 593 68 1087
224 1627 273 942 764 1784 1450 2486 621 637 1365 1117 2197 1421 1289 471
2737 471 4026 0 1191 -435 2218 -1248 2909 -2304 439 -669 722 -1378 873
-2180 63 -340 89 -643 89 -1050 0 -592 -68 -1086 -223 -1623 -240 -828 -632
-1554 -1205 -2227 -133 -157 -501 -519 -666 -656 -602 -501 -1260 -867 -1965
-1093 -88 -28 -166 -55 -174 -59 -11 -6 -13 -29 -12 -97 1 -49 4 -91 6 -93 6
-6 237 66 405 126 1704 612 3047 1951 3664 3651 242 664 358 1335 360 2061 0
503 -47 926 -158 1400 -490 2089 -2054 3770 -4106 4412 -403 126 -853 214
-1300 253 -172 15 -618 26 -755 19z"/>
<path d="M7020 13184 c-1071 -50 -2045 -366 -2920 -947 -1058 -703 -1857
-1754 -2250 -2962 -233 -717 -323 -1516 -255 -2255 85 -921 373 -1770 861
-2540 339 -536 800 -1041 1320 -1446 512 -399 1108 -711 1739 -913 252 -80
356 -106 365 -90 4 6 11 48 15 93 8 100 51 468 65 556 5 36 10 81 10 100 l0
35 -102 29 c-143 39 -427 143 -590 216 -1343 595 -2348 1757 -2734 3159 -196
714 -228 1467 -93 2196 51 272 114 507 205 755 386 1062 1113 1946 2079 2528
487 292 1012 494 1570 603 1183 231 2411 15 3440 -603 966 -582 1693 -1465
2079 -2528 295 -810 364 -1699 201 -2565 -257 -1358 -1088 -2548 -2281 -3265
-246 -147 -599 -317 -817 -392 l-68 -23 1 -412 c1 -227 5 -415 9 -418 11 -6
293 89 466 158 488 194 963 465 1369 781 377 294 728 645 1022 1022 658 845
1058 1868 1159 2964 78 844 -49 1745 -357 2540 -537 1386 -1597 2509 -2943
3120 -591 268 -1241 436 -1890 490 -132 10 -557 20 -675 14z"/>
<path d="M6910 11699 c-526 -44 -1024 -178 -1481 -398 -782 -375 -1436 -991
-1854 -1746 -297 -536 -468 -1109 -516 -1725 -16 -213 -6 -639 20 -830 110
-804 404 -1496 897 -2110 452 -563 1039 -996 1724 -1270 171 -68 318 -116 328
-105 13 12 14 394 3 580 -14 214 -34 375 -67 545 -14 69 -27 134 -29 145 -2
11 -4 22 -5 25 -1 3 -2 8 -1 13 3 19 -22 96 -30 91 -5 -3 -6 2 -3 11 7 18 -35
117 -46 110 -4 -3 -8 1 -7 8 1 39 -4 49 -20 42 -14 -5 -15 -4 -6 6 15 15 -31
114 -49 103 -7 -5 -9 -2 -5 8 6 18 -20 61 -33 53 -4 -3 -6 4 -3 14 4 18 -61
153 -92 191 -7 8 -15 26 -18 40 -4 14 -22 50 -40 81 -19 32 -37 69 -41 83 -3
14 -11 26 -16 26 -6 0 -10 12 -10 26 0 14 -4 22 -10 19 -6 -3 -7 1 -4 9 3 9 2
16 -3 16 -5 0 -10 6 -10 14 0 8 -10 38 -23 67 -23 53 -24 60 -28 459 -2 223 1
522 7 665 6 143 18 409 26 590 8 182 15 425 17 540 l3 210 83 -2 c46 -1 90 -4
98 -7 12 -5 14 -63 14 -383 1 -520 17 -1247 30 -1368 6 -55 18 -123 26 -152
25 -90 51 -51 75 117 14 90 26 750 25 1351 l-1 436 71 2 c67 2 72 1 76 -21 2
-13 5 -295 7 -628 3 -834 19 -1185 57 -1279 12 -29 16 -32 30 -20 8 7 13 21
11 31 -3 10 -2 16 3 13 12 -8 29 128 40 320 10 179 14 487 15 1203 0 204 4
372 8 372 5 0 6 3 3 8 -5 8 125 4 134 -4 2 -3 5 -179 7 -392 6 -922 12 -1292
19 -1304 5 -7 7 -25 5 -40 -5 -47 21 -178 40 -201 l17 -22 12 30 c39 101 50
307 56 1020 2 347 7 694 10 773 l6 143 67 -3 66 -3 6 -220 c4 -121 8 -478 9
-792 2 -315 6 -573 9 -573 3 0 4 -23 3 -50 -5 -65 17 -254 29 -258 5 -2 7 -8
4 -13 -8 -11 13 -49 26 -49 6 0 8 4 5 9 -4 5 -1 11 4 13 33 11 60 397 60 843
0 149 3 455 7 680 6 383 7 408 25 413 10 2 15 9 11 16 -3 6 0 6 8 -1 8 -8 40
-13 80 -13 l66 0 7 -242 c4 -134 17 -439 29 -678 29 -591 32 -1451 4 -1518 -9
-24 -14 -48 -11 -54 4 -7 2 -8 -4 -4 -12 7 -13 6 -17 -33 -1 -13 -7 -26 -12
-30 -14 -9 -92 -179 -85 -185 3 -3 1 -6 -5 -6 -15 0 -36 -56 -27 -71 4 -7 3
-10 -3 -6 -12 8 -86 -120 -77 -135 4 -6 3 -8 -4 -4 -6 3 -14 -4 -18 -16 -13
-39 -13 -52 -1 -68 10 -13 10 -13 -5 -2 -14 11 -19 9 -38 -18 -12 -16 -18 -30
-13 -30 4 0 3 -4 -3 -8 -18 -12 -85 -154 -79 -169 2 -8 0 -11 -5 -8 -16 10
-63 -125 -73 -215 -2 -19 -7 -42 -10 -50 -20 -49 -80 -451 -76 -498 2 -15 0
-32 -3 -37 -9 -15 -13 -219 -4 -233 4 -7 3 -12 -1 -12 -5 0 -9 -51 -8 -112 3
-230 4 -236 23 -241 13 -4 12 -5 -5 -6 -21 -1 -21 -4 -16 -99 3 -53 7 -98 8
-100 5 -6 216 -42 345 -59 195 -26 766 -26 960 0 222 30 476 78 490 94 10 11
-10 315 -22 330 -6 7 -15 10 -21 6 -5 -3 -7 -1 -4 4 4 6 -3 19 -15 29 -15 13
-19 14 -14 4 4 -8 0 -6 -9 5 -9 11 -22 18 -28 17 -7 -2 -9 0 -5 4 9 9 -10 34
-26 34 -6 0 -5 -4 3 -9 9 -6 10 -11 2 -15 -10 -6 -15 6 -12 26 2 13 -32 47
-41 42 -5 -3 -7 0 -6 6 2 6 -8 19 -22 28 -22 15 -24 15 -12 1 10 -14 10 -18
-1 -22 -10 -4 -13 2 -11 21 2 18 -6 36 -23 54 l-26 27 12 753 c6 414 16 938
21 1163 5 226 12 534 15 685 5 259 7 318 20 583 4 73 2 107 -5 107 -6 0 -8 -5
-4 -12 5 -7 3 -8 -6 -3 -10 6 -9 11 4 21 11 7 15 18 10 25 -4 8 -3 10 4 5 8
-5 12 4 12 29 0 20 12 116 26 212 14 96 23 181 20 189 -3 9 -1 12 4 9 5 -3 10
4 10 17 -1 24 7 101 11 106 3 3 4 13 13 67 18 119 111 586 151 760 24 105 46
201 49 215 8 45 18 83 59 225 22 77 41 147 42 155 1 8 6 23 10 34 4 10 8 31 9
46 1 15 4 26 9 23 4 -2 8 1 8 6 3 20 5 26 23 59 14 28 15 36 5 50 -11 14 -11
15 1 5 19 -18 44 15 27 36 -10 12 -9 13 2 6 9 -5 22 2 42 24 15 17 38 34 51
37 70 15 118 20 120 12 2 -5 18 -9 36 -11 17 -1 32 -5 32 -8 0 -4 13 -12 29
-19 16 -6 38 -22 50 -34 l21 -22 0 -2830 c-1 -1556 -4 -2893 -7 -2971 -3 -79
-3 -143 1 -143 4 0 62 25 129 56 876 400 1598 1103 2021 1969 205 419 330 837
397 1325 26 191 36 617 20 830 -86 1112 -597 2132 -1431 2853 -693 599 -1509
940 -2435 1017 -139 11 -506 11 -645 -1z m177 -195 c-3 -3 -12 -4 -19 -1 -8 3
-5 6 6 6 11 1 17 -2 13 -5z m56 -1 c-7 -2 -19 -2 -25 0 -7 3 -2 5 12 5 14 0
19 -2 13 -5z m230 0 c-7 -2 -21 -2 -30 0 -10 3 -4 5 12 5 17 0 24 -2 18 -5z
m-2153 -563 c8 -5 11 -10 5 -10 -5 0 -17 5 -25 10 -8 5 -10 10 -5 10 6 0 17
-5 25 -10z m4060 0 c-8 -5 -19 -10 -25 -10 -5 0 -3 5 5 10 8 5 20 10 25 10 6
0 3 -5 -5 -10z m-4693 -455 c0 -8 -4 -12 -9 -9 -5 3 -6 10 -3 15 9 13 12 11
12 -6z m5318 6 c3 -5 2 -12 -3 -15 -5 -3 -9 1 -9 9 0 17 3 19 12 6z m-5475
-175 c0 -2 -8 -10 -17 -17 -16 -13 -17 -12 -4 4 13 16 21 21 21 13z m5641 -13
c13 -16 12 -17 -3 -4 -17 13 -22 21 -14 21 2 0 10 -8 17 -17z m-5717 -79 c5
-14 4 -15 -9 -4 -17 14 -19 20 -6 20 5 0 12 -7 15 -16z m5820 0 c3 -8 2 -12
-4 -9 -6 3 -10 10 -10 16 0 14 7 11 14 -7z m-1601 -526 c-2 -5 -10 -8 -18 -8
-8 0 -16 3 -18 8 -3 4 5 7 18 7 13 0 21 -3 18 -7z m-4693 -42 c0 -2 -8 -10
-17 -17 -16 -13 -17 -12 -4 4 13 16 21 21 21 13z m6741 -13 c13 -16 12 -17 -3
-4 -17 13 -22 21 -14 21 2 0 10 -8 17 -17z m-6760 -40 c13 -16 12 -17 -3 -4
-10 7 -18 15 -18 17 0 8 8 3 21 -13z m6779 13 c0 -2 -8 -10 -17 -17 -16 -13
-17 -12 -4 4 13 16 21 21 21 13z m-6889 -209 c-10 -9 -11 -8 -5 6 3 10 9 15
12 12 3 -3 0 -11 -7 -18z m6983 7 c3 -8 2 -12 -4 -9 -6 3 -10 10 -10 16 0 14
7 11 14 -7z m-5037 -1070 c-3 -3 -12 -4 -19 -1 -8 3 -5 6 6 6 11 1 17 -2 13
-5z m477 -9 c3 -8 1 -15 -4 -15 -6 0 -10 7 -10 15 0 8 2 15 4 15 2 0 6 -7 10
-15z m401 -5 c3 -6 -1 -7 -9 -4 -18 7 -21 14 -7 14 6 0 13 -4 16 -10z m-3268
-442 c-3 -8 -6 -5 -6 6 -1 11 2 17 5 13 3 -3 4 -12 1 -19z m7870 0 c-3 -8 -6
-5 -6 6 -1 11 2 17 5 13 3 -3 4 -12 1 -19z m-7920 -530 c-3 -7 -5 -2 -5 12 0
14 2 19 5 13 2 -7 2 -19 0 -25z m2333 -1812 c0 -2 -8 -10 -17 -17 -16 -13 -17
-12 -4 4 13 16 21 21 21 13z m1243 -137 c-8 -8 -13 -7 -18 2 -5 8 -4 10 3 5 7
-4 12 -2 12 5 0 7 3 9 7 6 4 -4 2 -12 -4 -18z m-2412 -676 c13 -16 12 -17 -3
-4 -10 7 -18 15 -18 17 0 8 8 3 21 -13z m5659 13 c0 -2 -8 -10 -17 -17 -16
-13 -17 -12 -4 4 13 16 21 21 21 13z m-5570 -106 c-6 -11 -13 -20 -16 -20 -2
0 0 9 6 20 6 11 13 20 16 20 2 0 0 -9 -6 -20z m83 -99 c-2 -3 -16 8 -31 24
l-27 28 31 -24 c17 -13 30 -26 27 -28z m1384 -403 c-3 -8 -6 -5 -6 6 -1 11 2
17 5 13 3 -3 4 -12 1 -19z m-407 -214 c0 -8 -19 -13 -24 -6 -3 5 1 9 9 9 8 0
15 -2 15 -3z m3370 0 c0 -8 -19 -13 -24 -6 -3 5 1 9 9 9 8 0 15 -2 15 -3z
m-883 -104 c-2 -23 -10 -17 -12 10 -1 10 2 17 6 14 4 -2 7 -13 6 -24z m101
-65 c-3 -3 -9 2 -12 12 -6 14 -5 15 5 6 7 -7 10 -15 7 -18z m32 0 c0 -8 -4
-15 -10 -15 -5 0 -7 7 -4 15 4 8 8 15 10 15 2 0 4 -7 4 -15z m-2183 -21 c-3
-3 -12 -4 -19 -1 -8 3 -5 6 6 6 11 1 17 -2 13 -5z m1060 -200 c-3 -3 -12 -4
-19 -1 -8 3 -5 6 6 6 11 1 17 -2 13 -5z m370 0 c-3 -3 -12 -4 -19 -1 -8 3 -5
6 6 6 11 1 17 -2 13 -5z"/>
<path d="M8065 2718 c-309 -52 -449 -63 -830 -63 -337 1 -497 11 -702 44 -53
8 -53 8 -53 -18 0 -14 5 -55 10 -91 15 -92 36 -274 60 -499 11 -107 21 -196
23 -197 9 -9 356 -35 542 -40 217 -7 475 5 735 32 149 15 367 47 374 55 6 6
12 797 6 801 -3 2 -77 -9 -165 -24z"/>
<path d="M8065 1690 c-346 -53 -900 -71 -1280 -41 -99 8 -182 12 -185 10 -6
-4 -1 -87 9 -144 l6 -40 60 -7 c178 -20 575 -29 815 -19 266 12 701 56 715 73
1 2 5 45 9 96 6 84 5 92 -11 91 -10 -1 -72 -9 -138 -19z"/>
</g>
</svg>
